<svg width="32" height="32" viewBox="0 0 32 32" fill="none" xmlns="http://www.w3.org/2000/svg">
<g clip-path="url(#clip0_1007_2026)">
<path d="M27.6667 1V4H30.6667V6.66667H27.6667V9.65333C27.6667 9.65333 25.0133 9.66667 25 9.65333V6.66667H22C22 6.66667 22.0133 4.01333 22 4H25V1H27.6667Z" fill="#2E283B"/>
<path d="M25 4L21.9926 4V6.66667H19.0059C19.0059 6.66667 18.9926 4.01333 19.0059 4H3.66667C2.2 4 1 5.2 1 6.66667V30.6667L6.33333 25.3333H25C26.4667 25.3333 27.6667 24.1333 27.6667 22.6667L27.6667 12.9867C27.6667 12.9867 25.0133 13 25 12.9867V22.6667H5.22667L3.66667 24.2267V6.66667H25V10H27.6667V6.66667C27.6667 5.2 26.4667 4 25 4Z" fill="#2E283B"/>
<path d="M7.66667 13.3333H10.3333V16H7.66667V13.3333Z" fill="#2E283B"/>
<path d="M21 13.3333V16H18.3333V13.3333H21Z" fill="#2E283B"/>
<path d="M13 13.3333H15.6667V16H13V13.3333Z" fill="#2E283B"/>
</g>
<defs>
<clipPath id="clip0_1007_2026">
<rect width="32" height="32" fill="white"/>
</clipPath>
</defs>
</svg>
