<svg width="24" height="24" viewBox="0 0 24 24" fill="none" xmlns="http://www.w3.org/2000/svg">
<g clip-path="url(#clip0_1007_2026)">
<path d="M20.75 0.75V3H23V5H20.75V7.24C20.75 7.24 18.76 7.25 18.75 7.24V5H16.5C16.5 5 16.51 3.01 16.5 3H18.75V0.75H20.75Z" fill="#2E283B"/>
<path d="M18.75 3L16.4945 3V5H14.2545C14.2545 5 14.2445 3.01 14.2545 3H2.75C1.65 3 0.75 3.9 0.75 5V23L4.75 19H18.75C19.85 19 20.75 18.1 20.75 17L20.75 9.74C20.75 9.74 18.76 9.75 18.75 9.74V17H3.92L2.75 18.17V5H18.75V7.5H20.75V5C20.75 3.9 19.85 3 18.75 3Z" fill="#2E283B"/>
<path d="M5.75 10H7.75V12H5.75V10Z" fill="#2E283B"/>
<path d="M15.75 10V12H13.75V10H15.75Z" fill="#2E283B"/>
<path d="M9.75 10H11.75V12H9.75V10Z" fill="#2E283B"/>
</g>
<defs>
<clipPath id="clip0_1007_2026">
<rect width="24" height="24" fill="white"/>
</clipPath>
</defs>
</svg>
