<svg width="32" height="32" viewBox="0 0 32 32" fill="none" xmlns="http://www.w3.org/2000/svg">
<g clip-path="url(#clip0_1007_1106)">
<path d="M16 8C21.0533 8 25.56 10.84 27.76 15.3333C26.9733 16.96 25.8667 18.36 24.5467 19.4933L26.4267 21.3733C28.28 19.7333 29.7467 17.68 30.6667 15.3333C28.36 9.48 22.6667 5.33333 16 5.33333C14.3067 5.33333 12.68 5.6 11.1467 6.09333L13.3467 8.29333C14.2133 8.12 15.0933 8 16 8ZM14.5733 9.52L17.3333 12.28C18.0933 12.6133 18.7067 13.2267 19.04 13.9867L21.8 16.7467C21.9067 16.2933 21.9867 15.8133 21.9867 15.32C22 12.0133 19.3067 9.33333 16 9.33333C15.5067 9.33333 15.04 9.4 14.5733 9.52ZM2.68001 5.16L6.25334 8.73333C4.08001 10.44 2.36001 12.7067 1.33334 15.3333C3.64001 21.1867 9.33334 25.3333 16 25.3333C18.0267 25.3333 19.9733 24.9467 21.76 24.24L26.32 28.8L28.2 26.92L4.56001 3.26666L2.68001 5.16ZM12.68 15.16L16.16 18.64C16.1067 18.6533 16.0533 18.6667 16 18.6667C14.16 18.6667 12.6667 17.1733 12.6667 15.3333C12.6667 15.2667 12.68 15.2267 12.68 15.16ZM8.14668 10.6267L10.48 12.96C10.1733 13.6933 10 14.4933 10 15.3333C10 18.64 12.6933 21.3333 16 21.3333C16.84 21.3333 17.64 21.16 18.36 20.8533L19.6667 22.16C18.4933 22.48 17.2667 22.6667 16 22.6667C10.9467 22.6667 6.44001 19.8267 4.24001 15.3333C5.17334 13.4267 6.53334 11.8533 8.14668 10.6267Z" fill="#C7C7C7"/>
</g>
<defs>
<clipPath id="clip0_1007_1106">
<rect width="32" height="32" fill="white"/>
</clipPath>
</defs>
</svg>
