<svg width="32" height="32" viewBox="0 0 32 32" fill="none" xmlns="http://www.w3.org/2000/svg">
<g clip-path="url(#clip0_1007_1110)">
<path d="M16 7.99998C21.0533 7.99998 25.56 10.84 27.76 15.3333C25.56 19.8266 21.0533 22.6666 16 22.6666C10.9467 22.6666 6.44001 19.8266 4.24001 15.3333C6.44001 10.84 10.9467 7.99998 16 7.99998ZM16 5.33331C9.33334 5.33331 3.64001 9.47998 1.33334 15.3333C3.64001 21.1866 9.33334 25.3333 16 25.3333C22.6667 25.3333 28.36 21.1866 30.6667 15.3333C28.36 9.47998 22.6667 5.33331 16 5.33331ZM16 12C17.84 12 19.3333 13.4933 19.3333 15.3333C19.3333 17.1733 17.84 18.6666 16 18.6666C14.16 18.6666 12.6667 17.1733 12.6667 15.3333C12.6667 13.4933 14.16 12 16 12ZM16 9.33331C12.6933 9.33331 10 12.0266 10 15.3333C10 18.64 12.6933 21.3333 16 21.3333C19.3067 21.3333 22 18.64 22 15.3333C22 12.0266 19.3067 9.33331 16 9.33331Z" fill="#2E283B"/>
</g>
<defs>
<clipPath id="clip0_1007_1110">
<rect width="32" height="32" fill="white"/>
</clipPath>
</defs>
</svg>
