<svg width="24" height="24" viewBox="0 0 24 24" fill="none" xmlns="http://www.w3.org/2000/svg">
<g clip-path="url(#clip0_303_3841)">
<path d="M18.5 4.00003C18.5 4.00003 9.416 4.00005 5 4.00005C0.584 4.00005 -3 7.58405 -3 12C-3 16.416 0.584 20 5 20L18.5 20C22.916 20 26.5 16.416 26.5 12C26.5 7.58403 22.916 4.00003 18.5 4.00003ZM18.5 16.8C15.844 16.8 13.7 14.656 13.7 12C13.7 9.34403 15.844 7.20003 18.5 7.20003C21.156 7.20003 23.3 9.34403 23.3 12C23.3 14.656 21.156 16.8 18.5 16.8Z" fill="#2E283B"/>
</g>
<defs>
<clipPath id="clip0_303_3841">
<rect width="24" height="24" fill="white"/>
</clipPath>
</defs>
</svg>
