<svg width="25" height="25" viewBox="0 0 25 25" fill="none" xmlns="http://www.w3.org/2000/svg">
<g id="Group">
<g id="Group_2">
<path id="Vector" d="M23.96 6.69323C24.48 6.17323 24.48 5.33324 23.96 4.81324L20.1867 1.0399C19.6667 0.519902 18.8267 0.519902 18.3067 1.0399L12.32 7.02657L7.13333 1.8399C6.09333 0.799903 4.4 0.799903 3.36 1.8399L0.826667 4.37324C-0.213333 5.41324 -0.213333 7.10657 0.826667 8.14657L6.01333 13.3332L0 19.3466V24.9999H5.65333L11.68 18.9732L16.8667 24.1599C18.1333 25.4266 19.84 24.9599 20.64 24.1599L23.1733 21.6266C24.2133 20.5866 24.2133 18.8932 23.1733 17.8532L17.9867 12.6666L23.96 6.69323ZM2.72 6.25324L5.24 3.7199L6.93333 5.41324L5.36 6.9999L7.24 8.8799L8.82667 7.29323L10.4267 8.89324L7.89333 11.4266L2.72 6.25324ZM17.6933 16.1732L16.1067 17.7599L17.9867 19.6399L19.5733 18.0532L21.2667 19.7466L18.7333 22.2799L13.5467 17.0932L16.08 14.5599L17.6933 16.1732ZM4.54667 22.3332H2.66667V20.4532L15.48 7.6399L17.2133 9.37323L17.36 9.5199L4.54667 22.3332ZM17.36 5.74657L19.24 3.86657L21.12 5.74657L19.24 7.62657L17.36 5.74657Z" fill="black"/>
</g>
</g>
</svg>
